<mxfile host="app.diagrams.net" agent="Mozilla/5.0 (Windows NT 10.0; Win64; x64; rv:130.0) Gecko/20100101 Firefox/130.0" version="24.7.13">
  <diagram name="Page-1" id="CvhjbtxJpAnkuYpp8DQP">
    <mxGraphModel dx="1765" dy="1390" grid="1" gridSize="10" guides="1" tooltips="1" connect="1" arrows="1" fold="1" page="1" pageScale="1" pageWidth="827" pageHeight="583" math="0" shadow="0">
      <root>
        <mxCell id="0" />
        <mxCell id="1" parent="0" />
        <mxCell id="L792V39x15litVdkWeOh-18" value="JXGGenericSplineCurve" style="whiteSpace=wrap;strokeWidth=2;verticalAlign=middle;" parent="1" vertex="1">
          <mxGeometry x="-700" y="-502" width="160" height="50" as="geometry" />
        </mxCell>
        <mxCell id="L792V39x15litVdkWeOh-23" value="AbstractJXGPointControlledCurve&#xa;" style="strokeWidth=2;textShadow=0;fontStyle=0" parent="1" vertex="1">
          <mxGeometry x="-250" y="-393" width="190" height="50" as="geometry" />
        </mxCell>
        <mxCell id="wIcexeNxMYov8hJtN3G0-4" value="AbstractJXGBezierCurve&#xa;" style="whiteSpace=wrap;strokeWidth=2;verticalAlign=middle;" vertex="1" parent="1">
          <mxGeometry x="-460" y="-348" width="159" height="50" as="geometry" />
        </mxCell>
        <mxCell id="wIcexeNxMYov8hJtN3G0-12" value="" style="endArrow=block;endSize=16;endFill=0;html=1;rounded=0;entryX=0.005;entryY=0.391;entryDx=0;entryDy=0;exitX=1;exitY=0.5;exitDx=0;exitDy=0;entryPerimeter=0;" edge="1" parent="1" source="wIcexeNxMYov8hJtN3G0-43" target="L792V39x15litVdkWeOh-23">
          <mxGeometry width="160" relative="1" as="geometry">
            <mxPoint x="-460" y="-410" as="sourcePoint" />
            <mxPoint x="-300" y="-410" as="targetPoint" />
          </mxGeometry>
        </mxCell>
        <mxCell id="wIcexeNxMYov8hJtN3G0-13" value="" style="endArrow=block;endSize=16;endFill=0;html=1;rounded=0;entryX=0;entryY=0.75;entryDx=0;entryDy=0;exitX=0.997;exitY=0.577;exitDx=0;exitDy=0;exitPerimeter=0;" edge="1" parent="1" source="wIcexeNxMYov8hJtN3G0-4" target="L792V39x15litVdkWeOh-23">
          <mxGeometry width="160" relative="1" as="geometry">
            <mxPoint x="-349" y="-329.9999999999999" as="sourcePoint" />
            <mxPoint x="-250" y="-354.9999999999999" as="targetPoint" />
          </mxGeometry>
        </mxCell>
        <mxCell id="wIcexeNxMYov8hJtN3G0-16" value="JXGQuadraticC1SplineCurve" style="whiteSpace=wrap;strokeWidth=2;verticalAlign=middle;" vertex="1" parent="1">
          <mxGeometry x="-700" y="-445" width="160" height="50" as="geometry" />
        </mxCell>
        <mxCell id="wIcexeNxMYov8hJtN3G0-17" value="JXGRationalBezierCurve" style="whiteSpace=wrap;strokeWidth=2;verticalAlign=middle;" vertex="1" parent="1">
          <mxGeometry x="-700" y="-345" width="160" height="50" as="geometry" />
        </mxCell>
        <mxCell id="wIcexeNxMYov8hJtN3G0-18" value="JXGPolynomialBezierCurve" style="whiteSpace=wrap;strokeWidth=2;verticalAlign=middle;" vertex="1" parent="1">
          <mxGeometry x="-700" y="-275" width="160" height="50" as="geometry" />
        </mxCell>
        <mxCell id="wIcexeNxMYov8hJtN3G0-20" value="" style="endArrow=block;endSize=16;endFill=0;html=1;rounded=0;entryX=0;entryY=0.5;entryDx=0;entryDy=0;exitX=1;exitY=0.5;exitDx=0;exitDy=0;" edge="1" parent="1" source="wIcexeNxMYov8hJtN3G0-17" target="wIcexeNxMYov8hJtN3G0-4">
          <mxGeometry width="160" relative="1" as="geometry">
            <mxPoint x="-660" y="-348" as="sourcePoint" />
            <mxPoint x="-570" y="-342.0000000000001" as="targetPoint" />
          </mxGeometry>
        </mxCell>
        <mxCell id="wIcexeNxMYov8hJtN3G0-21" value="" style="endArrow=block;endSize=16;endFill=0;html=1;rounded=0;entryX=0;entryY=0.75;entryDx=0;entryDy=0;exitX=1;exitY=0.5;exitDx=0;exitDy=0;" edge="1" parent="1" source="wIcexeNxMYov8hJtN3G0-18" target="wIcexeNxMYov8hJtN3G0-4">
          <mxGeometry width="160" relative="1" as="geometry">
            <mxPoint x="-640" y="-268" as="sourcePoint" />
            <mxPoint x="-569.4800000000001" y="-333.0000000000001" as="targetPoint" />
          </mxGeometry>
        </mxCell>
        <mxCell id="wIcexeNxMYov8hJtN3G0-27" value="" style="ellipse;whiteSpace=wrap;html=1;fillColor=#000000;strokeWidth=0.01;" vertex="1" parent="1">
          <mxGeometry x="-624" y="-374" width="8" height="8" as="geometry" />
        </mxCell>
        <mxCell id="wIcexeNxMYov8hJtN3G0-29" value="&lt;i&gt;getInitialCurve&lt;/i&gt;" style="text;html=1;align=center;verticalAlign=middle;whiteSpace=wrap;rounded=0;" vertex="1" parent="1">
          <mxGeometry x="-185" y="-373" width="60" height="30" as="geometry" />
        </mxCell>
        <mxCell id="wIcexeNxMYov8hJtN3G0-35" value="&lt;i&gt;getInitialCurve&lt;/i&gt;" style="text;html=1;align=center;verticalAlign=middle;whiteSpace=wrap;rounded=0;" vertex="1" parent="1">
          <mxGeometry x="-650" y="-530" width="60" height="30" as="geometry" />
        </mxCell>
        <mxCell id="wIcexeNxMYov8hJtN3G0-36" value="&lt;font style=&quot;font-size: 12px;&quot;&gt;Implementirajo&lt;/font&gt;" style="text;strokeColor=none;fillColor=none;html=1;fontSize=24;fontStyle=1;verticalAlign=middle;align=center;" vertex="1" parent="1">
          <mxGeometry x="-675" y="-560" width="110" height="40" as="geometry" />
        </mxCell>
        <mxCell id="wIcexeNxMYov8hJtN3G0-38" value="" style="ellipse;whiteSpace=wrap;html=1;fillColor=#000000;strokeWidth=0.01;" vertex="1" parent="1">
          <mxGeometry x="-624" y="-385" width="8" height="8" as="geometry" />
        </mxCell>
        <mxCell id="wIcexeNxMYov8hJtN3G0-39" value="" style="ellipse;whiteSpace=wrap;html=1;fillColor=#000000;strokeWidth=0.01;" vertex="1" parent="1">
          <mxGeometry x="-624" y="-364" width="8" height="8" as="geometry" />
        </mxCell>
        <mxCell id="wIcexeNxMYov8hJtN3G0-42" value="&lt;i&gt;getInitialCurve&lt;/i&gt;" style="text;html=1;align=center;verticalAlign=middle;whiteSpace=wrap;rounded=0;" vertex="1" parent="1">
          <mxGeometry x="-410" y="-328" width="60" height="30" as="geometry" />
        </mxCell>
        <mxCell id="wIcexeNxMYov8hJtN3G0-43" value="AbstractJXGSplineCurve&#xa;" style="whiteSpace=wrap;strokeWidth=2;verticalAlign=middle;" vertex="1" parent="1">
          <mxGeometry x="-459.5" y="-442" width="159" height="50" as="geometry" />
        </mxCell>
        <mxCell id="wIcexeNxMYov8hJtN3G0-44" value="&lt;i&gt;getInitialCurve&lt;/i&gt;" style="text;html=1;align=center;verticalAlign=middle;whiteSpace=wrap;rounded=0;" vertex="1" parent="1">
          <mxGeometry x="-409.5" y="-422" width="60" height="30" as="geometry" />
        </mxCell>
        <mxCell id="wIcexeNxMYov8hJtN3G0-46" value="" style="endArrow=block;endSize=16;endFill=0;html=1;rounded=0;entryX=0;entryY=0.25;entryDx=0;entryDy=0;exitX=1;exitY=0.5;exitDx=0;exitDy=0;" edge="1" parent="1" source="L792V39x15litVdkWeOh-18" target="wIcexeNxMYov8hJtN3G0-43">
          <mxGeometry width="160" relative="1" as="geometry">
            <mxPoint x="-520" y="-487" as="sourcePoint" />
            <mxPoint x="-440" y="-500" as="targetPoint" />
          </mxGeometry>
        </mxCell>
        <mxCell id="wIcexeNxMYov8hJtN3G0-47" value="" style="endArrow=block;endSize=16;endFill=0;html=1;rounded=0;entryX=0.006;entryY=0.668;entryDx=0;entryDy=0;exitX=0.997;exitY=0.418;exitDx=0;exitDy=0;exitPerimeter=0;entryPerimeter=0;" edge="1" parent="1" source="wIcexeNxMYov8hJtN3G0-16" target="wIcexeNxMYov8hJtN3G0-43">
          <mxGeometry width="160" relative="1" as="geometry">
            <mxPoint x="-530" y="-423" as="sourcePoint" />
            <mxPoint x="-449" y="-385" as="targetPoint" />
          </mxGeometry>
        </mxCell>
      </root>
    </mxGraphModel>
  </diagram>
</mxfile>
